<?xml version="1.0" encoding="utf-8"?>
<!-- Generator: Adobe Illustrator 26.1.0, SVG Export Plug-In . SVG Version: 6.00 Build 0)  -->
<svg version="1.1" id="Layer_1" xmlns="http://www.w3.org/2000/svg" xmlns:xlink="http://www.w3.org/1999/xlink" x="0px" y="0px"
	 viewBox="0 0 187 61" style="enable-background:new 0 0 187 61;" xml:space="preserve">
<style type="text/css">
	.st0{fill:#FFFFFF;}
	.st1{fill:url(#SVGID_1_);}
	.st2{fill:url(#SVGID_00000154419076636036700530000015531851802863789458_);}
	.st3{fill:url(#SVGID_00000166656789963006756450000017476576093233008829_);}
	.st4{fill:url(#SVGID_00000140716506162237038710000013423554511906870407_);}
	.st5{fill:url(#SVGID_00000181809073466940674640000006632247959465775786_);}
	.st6{fill:url(#SVGID_00000041288465940180812810000004234028450086089632_);}
	.st7{fill:url(#SVGID_00000082344718040727813040000008234766027092351153_);}
	.st8{fill:url(#SVGID_00000035505313675503761780000003556687565684449692_);}
	.st9{fill:url(#SVGID_00000119836835581151047370000002992580735606416824_);}
	.st10{fill:url(#SVGID_00000096043065378014555410000017775081053483396528_);}
</style>
<circle class="st0" cx="35.63" cy="30.5" r="27.5"/>
<linearGradient id="SVGID_1_" gradientUnits="userSpaceOnUse" x1="59.4902" y1="46.6985" x2="35.5305" y2="20.2047">
	<stop  offset="0" style="stop-color:#883BFF"/>
	<stop  offset="0.1339" style="stop-color:#8140FD"/>
	<stop  offset="0.3347" style="stop-color:#6C50F9"/>
	<stop  offset="0.5775" style="stop-color:#4B68F2"/>
	<stop  offset="0.8508" style="stop-color:#1C8AE9"/>
	<stop  offset="1" style="stop-color:#009FE3"/>
</linearGradient>
<polygon class="st1" points="29.28,22.1 21.47,19.32 27.82,12.38 39.59,10.02 "/>
<linearGradient id="SVGID_00000033332655226987702300000014167120312930368934_" gradientUnits="userSpaceOnUse" x1="63.3912" y1="43.1707" x2="39.4315" y2="16.6768">
	<stop  offset="0" style="stop-color:#883BFF"/>
	<stop  offset="0.1339" style="stop-color:#8140FD"/>
	<stop  offset="0.3347" style="stop-color:#6C50F9"/>
	<stop  offset="0.5775" style="stop-color:#4B68F2"/>
	<stop  offset="0.8508" style="stop-color:#1C8AE9"/>
	<stop  offset="1" style="stop-color:#009FE3"/>
</linearGradient>
<polygon style="fill:url(#SVGID_00000033332655226987702300000014167120312930368934_);" points="31.95,18.97 48.09,15.69 
	39.59,10.02 "/>
<linearGradient id="SVGID_00000017485143802634031290000010044956880231148723_" gradientUnits="userSpaceOnUse" x1="63.7817" y1="42.8175" x2="39.8221" y2="16.3236">
	<stop  offset="0" style="stop-color:#883BFF"/>
	<stop  offset="0.1339" style="stop-color:#8140FD"/>
	<stop  offset="0.3347" style="stop-color:#6C50F9"/>
	<stop  offset="0.5775" style="stop-color:#4B68F2"/>
	<stop  offset="0.8508" style="stop-color:#1C8AE9"/>
	<stop  offset="1" style="stop-color:#009FE3"/>
</linearGradient>
<polyline style="fill:url(#SVGID_00000017485143802634031290000010044956880231148723_);" points="40.02,17.33 40.75,27.13 
	48.96,27.57 48.09,15.69 "/>
<linearGradient id="SVGID_00000012451646969078318200000013867944079336712338_" gradientUnits="userSpaceOnUse" x1="57.7881" y1="48.2378" x2="33.8285" y2="21.7439">
	<stop  offset="0" style="stop-color:#883BFF"/>
	<stop  offset="0.1339" style="stop-color:#8140FD"/>
	<stop  offset="0.3347" style="stop-color:#6C50F9"/>
	<stop  offset="0.5775" style="stop-color:#4B68F2"/>
	<stop  offset="0.8508" style="stop-color:#1C8AE9"/>
	<stop  offset="1" style="stop-color:#009FE3"/>
</linearGradient>
<polygon style="fill:url(#SVGID_00000012451646969078318200000013867944079336712338_);" points="40.36,21.83 32.94,27.9 
	41.27,33.46 "/>
<linearGradient id="SVGID_00000152983693057990063690000014356210456770268815_" gradientUnits="userSpaceOnUse" x1="51.7321" y1="53.7145" x2="27.7725" y2="27.2207">
	<stop  offset="0" style="stop-color:#883BFF"/>
	<stop  offset="0.1339" style="stop-color:#8140FD"/>
	<stop  offset="0.3347" style="stop-color:#6C50F9"/>
	<stop  offset="0.5775" style="stop-color:#4B68F2"/>
	<stop  offset="0.8508" style="stop-color:#1C8AE9"/>
	<stop  offset="1" style="stop-color:#009FE3"/>
</linearGradient>
<polygon style="fill:url(#SVGID_00000152983693057990063690000014356210456770268815_);" points="32.94,27.9 30.02,38.4 
	40.37,36.68 41.27,33.46 "/>
<linearGradient id="SVGID_00000082331195346665756070000000398741952409955512_" gradientUnits="userSpaceOnUse" x1="50.2947" y1="55.0145" x2="26.335" y2="28.5206">
	<stop  offset="0" style="stop-color:#883BFF"/>
	<stop  offset="0.1339" style="stop-color:#8140FD"/>
	<stop  offset="0.3347" style="stop-color:#6C50F9"/>
	<stop  offset="0.5775" style="stop-color:#4B68F2"/>
	<stop  offset="0.8508" style="stop-color:#1C8AE9"/>
	<stop  offset="1" style="stop-color:#009FE3"/>
</linearGradient>
<polygon style="fill:url(#SVGID_00000082331195346665756070000000398741952409955512_);" points="30.53,38.31 32.27,42.44 
	39.02,39.77 40.37,36.68 "/>
<linearGradient id="SVGID_00000029035511232659702430000002794692037694640058_" gradientUnits="userSpaceOnUse" x1="59.6331" y1="46.5693" x2="35.6734" y2="20.0755">
	<stop  offset="0" style="stop-color:#883BFF"/>
	<stop  offset="0.1339" style="stop-color:#8140FD"/>
	<stop  offset="0.3347" style="stop-color:#6C50F9"/>
	<stop  offset="0.5775" style="stop-color:#4B68F2"/>
	<stop  offset="0.8508" style="stop-color:#1C8AE9"/>
	<stop  offset="1" style="stop-color:#009FE3"/>
</linearGradient>
<polygon style="fill:url(#SVGID_00000029035511232659702430000002794692037694640058_);" points="48.96,27.57 41.27,33.46 
	40.75,27.13 "/>
<linearGradient id="SVGID_00000041996576860317802270000003567434745071427246_" gradientUnits="userSpaceOnUse" x1="51.4077" y1="54.0079" x2="27.448" y2="27.5141">
	<stop  offset="0" style="stop-color:#883BFF"/>
	<stop  offset="0.1339" style="stop-color:#8140FD"/>
	<stop  offset="0.3347" style="stop-color:#6C50F9"/>
	<stop  offset="0.5775" style="stop-color:#4B68F2"/>
	<stop  offset="0.8508" style="stop-color:#1C8AE9"/>
	<stop  offset="1" style="stop-color:#009FE3"/>
</linearGradient>
<polygon style="fill:url(#SVGID_00000041996576860317802270000003567434745071427246_);" points="29.28,22.1 19.55,26.22 
	21.47,19.32 "/>
<linearGradient id="SVGID_00000119819337898492069560000009601969887606690453_" gradientUnits="userSpaceOnUse" x1="45.934" y1="58.958" x2="21.9744" y2="32.4642">
	<stop  offset="0" style="stop-color:#883BFF"/>
	<stop  offset="0.1339" style="stop-color:#8140FD"/>
	<stop  offset="0.3347" style="stop-color:#6C50F9"/>
	<stop  offset="0.5775" style="stop-color:#4B68F2"/>
	<stop  offset="0.8508" style="stop-color:#1C8AE9"/>
	<stop  offset="1" style="stop-color:#009FE3"/>
</linearGradient>
<polygon style="fill:url(#SVGID_00000119819337898492069560000009601969887606690453_);" points="41.27,45.67 36.73,52.93 
	33.13,52.93 38.16,45.67 "/>
<linearGradient id="SVGID_00000173136195733332467440000011805945239686226307_" gradientUnits="userSpaceOnUse" x1="43.5964" y1="61.072" x2="19.6368" y2="34.5782">
	<stop  offset="0" style="stop-color:#883BFF"/>
	<stop  offset="0.1339" style="stop-color:#8140FD"/>
	<stop  offset="0.3347" style="stop-color:#6C50F9"/>
	<stop  offset="0.5775" style="stop-color:#4B68F2"/>
	<stop  offset="0.8508" style="stop-color:#1C8AE9"/>
	<stop  offset="1" style="stop-color:#009FE3"/>
</linearGradient>
<polygon style="fill:url(#SVGID_00000173136195733332467440000011805945239686226307_);" points="35.21,49.93 32.77,45.67 
	29.63,45.67 33.13,52.93 "/>
<g>
	<path class="st0" d="M88.91,44.42h-4.05l-8.93-21.52h4.05L88.91,44.42z M88.86,44.42h-4.05l8.93-21.52h4.05L88.86,44.42z"/>
	<path class="st0" d="M101.05,19.67c-0.58,0-1.08-0.19-1.5-0.58c-0.42-0.39-0.63-0.87-0.63-1.44c0-0.57,0.21-1.06,0.63-1.44
		c0.42-0.39,0.92-0.58,1.5-0.58c0.61,0,1.12,0.19,1.55,0.58c0.42,0.39,0.63,0.87,0.63,1.44c0,0.58-0.21,1.06-0.63,1.44
		C102.17,19.48,101.65,19.67,101.05,19.67z M102.96,44.42h-3.8V22.91h3.8V44.42z"/>
	<path class="st0" d="M126.73,42.18c-1.01,0.72-2.19,1.36-3.54,1.92c-1.35,0.56-2.89,0.84-4.61,0.84c-1.41,0-2.71-0.21-3.9-0.63
		c-1.19-0.42-2.23-1.01-3.11-1.79c-0.88-0.78-1.58-1.74-2.11-2.89c-0.53-1.15-0.83-2.46-0.88-3.92V35.5
		c-0.46,0.06-0.93,0.09-1.4,0.11c-0.47,0.01-0.94,0.11-1.4,0.28v-3.92c0.49-0.14,0.96-0.23,1.42-0.26c0.46-0.03,0.93-0.07,1.42-0.13
		c0.09-1.38,0.4-2.64,0.95-3.8c0.55-1.15,1.28-2.14,2.2-2.98c0.92-0.83,2.01-1.48,3.28-1.94c1.26-0.46,2.66-0.69,4.18-0.69
		c1.64,0,3.12,0.36,4.44,1.08c1.01,0.58,1.84,1.37,2.5,2.37c0.66,1.01,0.99,2.14,0.99,3.41c0,1.32-0.45,2.56-1.34,3.71
		c-0.92,1.21-2.02,1.99-3.3,2.35c-1.28,0.36-2.67,0.54-4.16,0.54c-0.66,0-1.43-0.03-2.31-0.09c-0.88-0.06-1.67-0.09-2.39-0.09
		c-0.2,0-0.39,0.01-0.56,0.02c-0.17,0.01-0.33,0.04-0.47,0.06v0.22c0,1.7,0.57,2.98,1.7,3.86c1.14,0.88,2.55,1.32,4.25,1.32
		c0.86,0,1.66-0.07,2.39-0.22c0.73-0.14,1.42-0.35,2.07-0.6c0.65-0.26,1.27-0.56,1.88-0.91c0.6-0.35,1.21-0.72,1.81-1.12V42.18z
		 M119.74,25.92c-0.89,0-1.75,0.12-2.57,0.35c-0.82,0.23-1.55,0.58-2.2,1.03c-0.65,0.46-1.18,1.04-1.6,1.75
		c-0.42,0.7-0.67,1.55-0.75,2.52l2.33-0.09c0.49,0.06,1.08,0.09,1.79,0.11c0.7,0.01,1.39,0.02,2.05,0.02c0.57,0,1.15-0.04,1.73-0.11
		c0.57-0.07,1.08-0.22,1.53-0.43c0.45-0.22,0.8-0.51,1.08-0.88c0.27-0.37,0.41-0.85,0.41-1.42c0-1.04-0.39-1.77-1.16-2.2
		C121.59,26.14,120.72,25.92,119.74,25.92z"/>
	<path class="st0" d="M133.19,25.88c0.2-0.78,0.58-1.42,1.14-1.92c0.56-0.5,1.16-0.89,1.81-1.16c0.65-0.27,1.29-0.46,1.92-0.56
		c0.63-0.1,1.12-0.15,1.47-0.15c1.64,0,3.05,0.2,4.25,0.6c1.19,0.4,2.17,1.04,2.93,1.9c0.76,0.86,1.33,1.99,1.7,3.39
		c0.37,1.39,0.56,3.08,0.56,5.07v11.43h-3.88V32.91c0-0.89-0.07-1.74-0.22-2.54c-0.14-0.8-0.42-1.52-0.82-2.16
		c-0.4-0.63-0.95-1.14-1.64-1.53c-0.69-0.39-1.6-0.63-2.72-0.71c-0.78,0-1.55,0.14-2.33,0.43c-0.78,0.29-1.47,0.71-2.07,1.27
		c-0.6,0.56-1.1,1.24-1.49,2.05c-0.39,0.81-0.58,1.72-0.58,2.76v11.99h-3.92V22.86h3.92L133.19,25.88z"/>
	<path class="st0" d="M162.22,44.9c-1.58,0-3.07-0.3-4.46-0.91c-1.39-0.6-2.62-1.42-3.67-2.46c-1.05-1.04-1.88-2.24-2.48-3.62
		c-0.6-1.38-0.91-2.85-0.91-4.4c0-1.58,0.3-3.06,0.91-4.44c0.6-1.38,1.43-2.59,2.48-3.62c1.05-1.04,2.27-1.85,3.67-2.46
		c1.39-0.6,2.88-0.91,4.46-0.91c1.55,0,3.03,0.3,4.42,0.91c1.39,0.6,2.61,1.42,3.64,2.46c1.03,1.03,1.85,2.24,2.46,3.62
		c0.6,1.38,0.91,2.86,0.91,4.44c0,1.55-0.3,3.02-0.91,4.4c-0.6,1.38-1.42,2.59-2.46,3.62c-1.04,1.04-2.25,1.85-3.64,2.46
		C165.24,44.6,163.77,44.9,162.22,44.9z M162.22,26.14c-1.04,0-2.01,0.19-2.93,0.58c-0.92,0.39-1.72,0.91-2.39,1.57
		c-0.68,0.66-1.21,1.44-1.62,2.33c-0.4,0.89-0.6,1.85-0.6,2.89c0,1.04,0.2,2,0.6,2.89c0.4,0.89,0.94,1.68,1.62,2.35
		c0.68,0.68,1.47,1.21,2.39,1.6c0.92,0.39,1.9,0.58,2.93,0.58c1.04,0,2.01-0.19,2.91-0.58c0.91-0.39,1.7-0.92,2.37-1.6
		c0.68-0.68,1.21-1.46,1.6-2.35c0.39-0.89,0.58-1.85,0.58-2.89c0-1.04-0.19-2-0.58-2.89c-0.39-0.89-0.92-1.67-1.6-2.33
		c-0.68-0.66-1.47-1.19-2.37-1.57C164.22,26.33,163.25,26.14,162.22,26.14z"/>
	<path class="st0" d="M183.3,44.55c-1.18,0-2.26-0.22-3.23-0.65c-0.98-0.43-1.83-1-2.57-1.7c-0.73-0.7-1.3-1.52-1.7-2.46
		c-0.4-0.93-0.6-1.9-0.6-2.91V26.48h-3.84v-3.62h3.88v-6.81h3.75v6.81h4.36v3.62h-4.36v11.04c0.14,0.92,0.62,1.68,1.44,2.29
		c0.81,0.6,1.77,0.91,2.88,0.91V44.55z"/>
</g>
<g>
	<path class="st0" d="M29.33,22.26l-8.1-2.88l6.52-7.13l12.2-2.45L29.33,22.26z M21.7,19.26l7.54,2.68l9.99-11.71l-11.34,2.28
		L21.7,19.26z"/>
</g>
<g>
	<path class="st0" d="M31.59,19.18l7.97-9.34l8.88,5.92L31.59,19.18z M39.61,10.2l-7.3,8.56l15.43-3.13L39.61,10.2z"/>
</g>
<g>
	<polygon class="st0" points="49.1,27.72 40.62,27.26 39.89,17.34 40.16,17.32 40.88,27 48.81,27.43 47.96,15.7 48.23,15.68 	"/>
</g>
<g>
	<path class="st0" d="M41.43,33.72l-8.72-5.82l7.76-6.35L41.43,33.72z M33.17,27.88l7.94,5.3L40.24,22.1L33.17,27.88z"/>
</g>
<g>
	<path class="st0" d="M29.83,38.56l3.03-10.89l8.57,5.72l-0.95,3.41L29.83,38.56z M33.02,28.11l-2.81,10.11l10.06-1.66l0.85-3.05
		L33.02,28.11z"/>
</g>
<g>
	<path class="st0" d="M32.2,42.62l-1.86-4.41l10.26-1.7l-1.48,3.37l-0.05,0.02L32.2,42.62z M30.72,38.42l1.62,3.85l6.57-2.6
		l1.23-2.8L30.72,38.42z"/>
</g>
<g>
	<path class="st0" d="M41.15,33.72l-0.55-6.73l8.73,0.47L41.15,33.72z M40.9,27.27l0.49,5.93l7.2-5.51L40.9,27.27z"/>
</g>
<g>
	<path class="st0" d="M19.34,26.46l2.03-7.31l8.28,2.94L19.34,26.46z M21.56,19.5l-1.8,6.48l9.15-3.87L21.56,19.5z"/>
</g>
<g>
	<path class="st0" d="M36.81,53.07h-3.93l5.21-7.54h3.43L36.81,53.07z M33.39,52.8h3.26l4.37-6.99h-2.8L33.39,52.8z"/>
</g>
<g>
	<path class="st0" d="M33.11,53.2l-3.7-7.67h3.44l2.52,4.4L33.11,53.2z M29.85,45.81l3.31,6.86l1.9-2.74l-2.36-4.12H29.85z"/>
</g>
</svg>
