<?xml version="1.0" encoding="utf-8"?>
<!-- Generator: Adobe Illustrator 26.1.0, SVG Export Plug-In . SVG Version: 6.00 Build 0)  -->
<svg version="1.1" id="Layer_1" xmlns="http://www.w3.org/2000/svg" xmlns:xlink="http://www.w3.org/1999/xlink" x="0px" y="0px"
	 viewBox="0 0 187 61" style="enable-background:new 0 0 187 61;" xml:space="preserve">
<style type="text/css">
	.st0{fill:#FFFFFF;}
	.st1{fill:url(#SVGID_1_);}
	.st2{fill:url(#SVGID_00000181800040033550024370000003836158033543372968_);}
	.st3{fill:url(#SVGID_00000136404919474955813730000012877917310019324587_);}
	.st4{fill:url(#SVGID_00000161621138598505767370000016488812893241482637_);}
	.st5{fill:url(#SVGID_00000004535610541770726660000004585866896024853160_);}
	.st6{fill:url(#SVGID_00000065059316758086276270000007341738578979124109_);}
	.st7{fill:url(#SVGID_00000057843666959693780510000017445849496447419020_);}
	.st8{fill:url(#SVGID_00000105392880365503169510000010627293421696186498_);}
	.st9{fill:url(#SVGID_00000102511977409462686060000008298860116393149329_);}
	.st10{fill:url(#SVGID_00000050631098269036963480000003948970193165754558_);}
	.st11{fill:url(#SVGID_00000083771490382180589910000008828834939704065692_);}
</style>
<circle class="st0" cx="35.63" cy="30.5" r="27.5"/>
<linearGradient id="SVGID_1_" gradientUnits="userSpaceOnUse" x1="59.4928" y1="15.3039" x2="35.5331" y2="41.7977" gradientTransform="matrix(1 0 0 -1 0 62)">
	<stop  offset="0" style="stop-color:#883BFF"/>
	<stop  offset="0.1339" style="stop-color:#8140FD"/>
	<stop  offset="0.3347" style="stop-color:#6C50F9"/>
	<stop  offset="0.5775" style="stop-color:#4B68F2"/>
	<stop  offset="0.8508" style="stop-color:#1C8AE9"/>
	<stop  offset="1" style="stop-color:#009FE3"/>
</linearGradient>
<polygon class="st1" points="29.28,22.1 21.47,19.32 27.82,12.38 39.59,10.02 "/>
<linearGradient id="SVGID_00000103234321155316236880000003102112268624018331_" gradientUnits="userSpaceOnUse" x1="63.39" y1="18.8282" x2="39.4303" y2="45.3221" gradientTransform="matrix(1 0 0 -1 0 62)">
	<stop  offset="0" style="stop-color:#883BFF"/>
	<stop  offset="0.1339" style="stop-color:#8140FD"/>
	<stop  offset="0.3347" style="stop-color:#6C50F9"/>
	<stop  offset="0.5775" style="stop-color:#4B68F2"/>
	<stop  offset="0.8508" style="stop-color:#1C8AE9"/>
	<stop  offset="1" style="stop-color:#009FE3"/>
</linearGradient>
<polygon style="fill:url(#SVGID_00000103234321155316236880000003102112268624018331_);" points="31.95,18.97 48.09,15.69 
	39.59,10.02 "/>
<linearGradient id="SVGID_00000132055870176218842590000003610028230743956909_" gradientUnits="userSpaceOnUse" x1="63.7806" y1="19.1815" x2="39.821" y2="45.6754" gradientTransform="matrix(1 0 0 -1 0 62)">
	<stop  offset="0" style="stop-color:#883BFF"/>
	<stop  offset="0.1339" style="stop-color:#8140FD"/>
	<stop  offset="0.3347" style="stop-color:#6C50F9"/>
	<stop  offset="0.5775" style="stop-color:#4B68F2"/>
	<stop  offset="0.8508" style="stop-color:#1C8AE9"/>
	<stop  offset="1" style="stop-color:#009FE3"/>
</linearGradient>
<polyline style="fill:url(#SVGID_00000132055870176218842590000003610028230743956909_);" points="40.02,17.33 40.75,27.13 
	48.96,27.57 48.09,15.69 "/>
<linearGradient id="SVGID_00000106115683504886245230000002466555230320435600_" gradientUnits="userSpaceOnUse" x1="57.7875" y1="13.7617" x2="33.8279" y2="40.2556" gradientTransform="matrix(1 0 0 -1 0 62)">
	<stop  offset="0" style="stop-color:#883BFF"/>
	<stop  offset="0.1339" style="stop-color:#8140FD"/>
	<stop  offset="0.3347" style="stop-color:#6C50F9"/>
	<stop  offset="0.5775" style="stop-color:#4B68F2"/>
	<stop  offset="0.8508" style="stop-color:#1C8AE9"/>
	<stop  offset="1" style="stop-color:#009FE3"/>
</linearGradient>
<polygon style="fill:url(#SVGID_00000106115683504886245230000002466555230320435600_);" points="40.36,21.83 32.94,27.9 
	41.27,33.46 "/>
<linearGradient id="SVGID_00000077323878291928519140000005974204417811927700_" gradientUnits="userSpaceOnUse" x1="51.73" y1="8.2836" x2="27.7704" y2="34.7774" gradientTransform="matrix(1 0 0 -1 0 62)">
	<stop  offset="0" style="stop-color:#883BFF"/>
	<stop  offset="0.1339" style="stop-color:#8140FD"/>
	<stop  offset="0.3347" style="stop-color:#6C50F9"/>
	<stop  offset="0.5775" style="stop-color:#4B68F2"/>
	<stop  offset="0.8508" style="stop-color:#1C8AE9"/>
	<stop  offset="1" style="stop-color:#009FE3"/>
</linearGradient>
<polygon style="fill:url(#SVGID_00000077323878291928519140000005974204417811927700_);" points="32.94,27.9 30.02,38.4 
	40.37,36.68 41.27,33.46 "/>
<linearGradient id="SVGID_00000070109750913964448890000013715794622975076518_" gradientUnits="userSpaceOnUse" x1="50.2955" y1="6.9863" x2="26.3358" y2="33.4802" gradientTransform="matrix(1 0 0 -1 0 62)">
	<stop  offset="0" style="stop-color:#883BFF"/>
	<stop  offset="0.1339" style="stop-color:#8140FD"/>
	<stop  offset="0.3347" style="stop-color:#6C50F9"/>
	<stop  offset="0.5775" style="stop-color:#4B68F2"/>
	<stop  offset="0.8508" style="stop-color:#1C8AE9"/>
	<stop  offset="1" style="stop-color:#009FE3"/>
</linearGradient>
<polygon style="fill:url(#SVGID_00000070109750913964448890000013715794622975076518_);" points="30.53,38.31 32.27,42.44 
	39.02,39.77 40.37,36.68 "/>
<linearGradient id="SVGID_00000173842675381187091970000001236132814310508217_" gradientUnits="userSpaceOnUse" x1="59.6334" y1="15.431" x2="35.6737" y2="41.9248" gradientTransform="matrix(1 0 0 -1 0 62)">
	<stop  offset="0" style="stop-color:#883BFF"/>
	<stop  offset="0.1339" style="stop-color:#8140FD"/>
	<stop  offset="0.3347" style="stop-color:#6C50F9"/>
	<stop  offset="0.5775" style="stop-color:#4B68F2"/>
	<stop  offset="0.8508" style="stop-color:#1C8AE9"/>
	<stop  offset="1" style="stop-color:#009FE3"/>
</linearGradient>
<polygon style="fill:url(#SVGID_00000173842675381187091970000001236132814310508217_);" points="48.96,27.57 41.27,33.46 
	40.75,27.13 "/>
<linearGradient id="SVGID_00000036939839304596981270000004831124045173490305_" gradientUnits="userSpaceOnUse" x1="51.4079" y1="7.9922" x2="27.4482" y2="34.486" gradientTransform="matrix(1 0 0 -1 0 62)">
	<stop  offset="0" style="stop-color:#883BFF"/>
	<stop  offset="0.1339" style="stop-color:#8140FD"/>
	<stop  offset="0.3347" style="stop-color:#6C50F9"/>
	<stop  offset="0.5775" style="stop-color:#4B68F2"/>
	<stop  offset="0.8508" style="stop-color:#1C8AE9"/>
	<stop  offset="1" style="stop-color:#009FE3"/>
</linearGradient>
<polygon style="fill:url(#SVGID_00000036939839304596981270000004831124045173490305_);" points="29.28,22.1 19.55,26.22 
	21.47,19.32 "/>
<linearGradient id="SVGID_00000183222348267066141120000008236800979370479292_" gradientUnits="userSpaceOnUse" x1="45.9341" y1="3.0421" x2="21.9745" y2="29.5359" gradientTransform="matrix(1 0 0 -1 0 62)">
	<stop  offset="0" style="stop-color:#883BFF"/>
	<stop  offset="0.1339" style="stop-color:#8140FD"/>
	<stop  offset="0.3347" style="stop-color:#6C50F9"/>
	<stop  offset="0.5775" style="stop-color:#4B68F2"/>
	<stop  offset="0.8508" style="stop-color:#1C8AE9"/>
	<stop  offset="1" style="stop-color:#009FE3"/>
</linearGradient>
<polygon style="fill:url(#SVGID_00000183222348267066141120000008236800979370479292_);" points="41.27,45.67 36.73,52.93 
	33.13,52.93 38.16,45.67 "/>
<linearGradient id="SVGID_00000021829419896172672180000012488899478870725564_" gradientUnits="userSpaceOnUse" x1="43.5962" y1="0.9278" x2="19.6366" y2="27.4216" gradientTransform="matrix(1 0 0 -1 0 62)">
	<stop  offset="0" style="stop-color:#883BFF"/>
	<stop  offset="0.1339" style="stop-color:#8140FD"/>
	<stop  offset="0.3347" style="stop-color:#6C50F9"/>
	<stop  offset="0.5775" style="stop-color:#4B68F2"/>
	<stop  offset="0.8508" style="stop-color:#1C8AE9"/>
	<stop  offset="1" style="stop-color:#009FE3"/>
</linearGradient>
<polygon style="fill:url(#SVGID_00000021829419896172672180000012488899478870725564_);" points="35.21,49.93 32.77,45.67 
	29.63,45.67 33.13,52.93 "/>
<g>
	<path class="st0" d="M88.91,44.42h-4.05L75.93,22.9h4.05L88.91,44.42z M88.86,44.42h-4.05l8.93-21.52h4.05L88.86,44.42z"/>
	<path class="st0" d="M101.05,19.67c-0.58,0-1.08-0.19-1.5-0.58s-0.63-0.87-0.63-1.44s0.21-1.06,0.63-1.44
		c0.42-0.39,0.92-0.58,1.5-0.58c0.61,0,1.12,0.19,1.55,0.58c0.42,0.39,0.63,0.87,0.63,1.44c0,0.58-0.21,1.06-0.63,1.44
		C102.17,19.48,101.65,19.67,101.05,19.67z M102.96,44.42h-3.8V22.91h3.8V44.42z"/>
	<path class="st0" d="M126.73,42.18c-1.01,0.72-2.19,1.36-3.54,1.92c-1.35,0.56-2.89,0.84-4.61,0.84c-1.41,0-2.71-0.21-3.9-0.63
		c-1.19-0.42-2.23-1.01-3.11-1.79c-0.88-0.78-1.58-1.74-2.11-2.89c-0.53-1.15-0.83-2.46-0.88-3.92V35.5
		c-0.46,0.06-0.93,0.09-1.4,0.11c-0.47,0.01-0.94,0.11-1.4,0.28v-3.92c0.49-0.14,0.96-0.23,1.42-0.26s0.93-0.07,1.42-0.13
		c0.09-1.38,0.4-2.64,0.95-3.8c0.55-1.15,1.28-2.14,2.2-2.98c0.92-0.83,2.01-1.48,3.28-1.94c1.26-0.46,2.66-0.69,4.18-0.69
		c1.64,0,3.12,0.36,4.44,1.08c1.01,0.58,1.84,1.37,2.5,2.37c0.66,1.01,0.99,2.14,0.99,3.41c0,1.32-0.45,2.56-1.34,3.71
		c-0.92,1.21-2.02,1.99-3.3,2.35c-1.28,0.36-2.67,0.54-4.16,0.54c-0.66,0-1.43-0.03-2.31-0.09s-1.67-0.09-2.39-0.09
		c-0.2,0-0.39,0.01-0.56,0.02c-0.17,0.01-0.33,0.04-0.47,0.06v0.22c0,1.7,0.57,2.98,1.7,3.86c1.14,0.88,2.55,1.32,4.25,1.32
		c0.86,0,1.66-0.07,2.39-0.22c0.73-0.14,1.42-0.35,2.07-0.6c0.65-0.26,1.27-0.56,1.88-0.91c0.6-0.35,1.21-0.72,1.81-1.12
		L126.73,42.18L126.73,42.18z M119.74,25.92c-0.89,0-1.75,0.12-2.57,0.35s-1.55,0.58-2.2,1.03c-0.65,0.46-1.18,1.04-1.6,1.75
		c-0.42,0.7-0.67,1.55-0.75,2.52l2.33-0.09c0.49,0.06,1.08,0.09,1.79,0.11c0.7,0.01,1.39,0.02,2.05,0.02c0.57,0,1.15-0.04,1.73-0.11
		c0.57-0.07,1.08-0.22,1.53-0.43c0.45-0.22,0.8-0.51,1.08-0.88c0.27-0.37,0.41-0.85,0.41-1.42c0-1.04-0.39-1.77-1.16-2.2
		C121.59,26.14,120.72,25.92,119.74,25.92z"/>
	<path class="st0" d="M133.19,25.88c0.2-0.78,0.58-1.42,1.14-1.92s1.16-0.89,1.81-1.16s1.29-0.46,1.92-0.56s1.12-0.15,1.47-0.15
		c1.64,0,3.05,0.2,4.25,0.6c1.19,0.4,2.17,1.04,2.93,1.9s1.33,1.99,1.7,3.39c0.37,1.39,0.56,3.08,0.56,5.07v11.43h-3.88V32.91
		c0-0.89-0.07-1.74-0.22-2.54c-0.14-0.8-0.42-1.52-0.82-2.16c-0.4-0.63-0.95-1.14-1.64-1.53c-0.69-0.39-1.6-0.63-2.72-0.71
		c-0.78,0-1.55,0.14-2.33,0.43s-1.47,0.71-2.07,1.27c-0.6,0.56-1.1,1.24-1.49,2.05s-0.58,1.72-0.58,2.76v11.99h-3.92V22.86h3.92
		L133.19,25.88z"/>
	<path class="st0" d="M162.22,44.9c-1.58,0-3.07-0.3-4.46-0.91c-1.39-0.6-2.62-1.42-3.67-2.46s-1.88-2.24-2.48-3.62
		c-0.6-1.38-0.91-2.85-0.91-4.4c0-1.58,0.3-3.06,0.91-4.44c0.6-1.38,1.43-2.59,2.48-3.62c1.05-1.04,2.27-1.85,3.67-2.46
		c1.39-0.6,2.88-0.91,4.46-0.91c1.55,0,3.03,0.3,4.42,0.91c1.39,0.6,2.61,1.42,3.64,2.46c1.03,1.03,1.85,2.24,2.46,3.62
		c0.6,1.38,0.91,2.86,0.91,4.44c0,1.55-0.3,3.02-0.91,4.4c-0.6,1.38-1.42,2.59-2.46,3.62c-1.04,1.04-2.25,1.85-3.64,2.46
		C165.24,44.6,163.77,44.9,162.22,44.9z M162.22,26.14c-1.04,0-2.01,0.19-2.93,0.58s-1.72,0.91-2.39,1.57
		c-0.68,0.66-1.21,1.44-1.62,2.33c-0.4,0.89-0.6,1.85-0.6,2.89s0.2,2,0.6,2.89c0.4,0.89,0.94,1.68,1.62,2.35
		c0.68,0.68,1.47,1.21,2.39,1.6s1.9,0.58,2.93,0.58c1.04,0,2.01-0.19,2.91-0.58c0.91-0.39,1.7-0.92,2.37-1.6
		c0.68-0.68,1.21-1.46,1.6-2.35s0.58-1.85,0.58-2.89s-0.19-2-0.58-2.89s-0.92-1.67-1.6-2.33c-0.68-0.66-1.47-1.19-2.37-1.57
		C164.22,26.33,163.25,26.14,162.22,26.14z"/>
	<path class="st0" d="M183.3,44.55c-1.18,0-2.26-0.22-3.23-0.65c-0.98-0.43-1.83-1-2.57-1.7c-0.73-0.7-1.3-1.52-1.7-2.46
		c-0.4-0.93-0.6-1.9-0.6-2.91V26.48h-3.84v-3.62h3.88v-6.81h3.75v6.81h4.36v3.62h-4.36v11.04c0.14,0.92,0.62,1.68,1.44,2.29
		c0.81,0.6,1.77,0.91,2.88,0.91v3.83H183.3z"/>
</g>
<g>
	<path class="st0" d="M29.33,22.26l-8.1-2.88l6.52-7.13l12.2-2.45L29.33,22.26z M21.7,19.26l7.54,2.68l9.99-11.71l-11.34,2.28
		L21.7,19.26z"/>
</g>
<g>
	<path class="st0" d="M31.59,19.18l7.97-9.34l8.88,5.92L31.59,19.18z M39.61,10.2l-7.3,8.56l15.43-3.13L39.61,10.2z"/>
</g>
<g>
	<polygon class="st0" points="49.1,27.72 40.62,27.26 39.89,17.34 40.16,17.32 40.88,27 48.81,27.43 47.96,15.7 48.23,15.68 	"/>
</g>
<g>
	<path class="st0" d="M41.43,33.72l-8.72-5.82l7.76-6.35L41.43,33.72z M33.17,27.88l7.94,5.3L40.24,22.1L33.17,27.88z"/>
</g>
<g>
	<path class="st0" d="M29.83,38.56l3.03-10.89l8.57,5.72l-0.95,3.41L29.83,38.56z M33.02,28.11l-2.81,10.11l10.06-1.66l0.85-3.05
		L33.02,28.11z"/>
</g>
<g>
	<path class="st0" d="M32.2,42.62l-1.86-4.41l10.26-1.7l-1.48,3.37l-0.05,0.02L32.2,42.62z M30.72,38.42l1.62,3.85l6.57-2.6
		l1.23-2.8L30.72,38.42z"/>
</g>
<g>
	<path class="st0" d="M41.15,33.72l-0.55-6.73l8.73,0.47L41.15,33.72z M40.9,27.27l0.49,5.93l7.2-5.51L40.9,27.27z"/>
</g>
<g>
	<path class="st0" d="M19.34,26.46l2.03-7.31l8.28,2.94L19.34,26.46z M21.56,19.5l-1.8,6.48l9.15-3.87L21.56,19.5z"/>
</g>
<g>
	<path class="st0" d="M36.81,53.07h-3.93l5.21-7.54h3.43L36.81,53.07z M33.39,52.8h3.26l4.37-6.99h-2.8L33.39,52.8z"/>
</g>
<g>
	<path class="st0" d="M33.11,53.2l-3.7-7.67h3.44l2.52,4.4L33.11,53.2z M29.85,45.81l3.31,6.86l1.9-2.74l-2.36-4.12H29.85z"/>
</g>
<g>
	<g>
		<path d="M88.9,44.42h-4.05l-8.93-21.52h4.05L88.9,44.42z M88.86,44.42h-4.05l8.93-21.52h4.05L88.86,44.42z"/>
		<path d="M101.04,19.67c-0.58,0-1.08-0.19-1.5-0.58c-0.42-0.39-0.63-0.87-0.63-1.44c0-0.57,0.21-1.06,0.63-1.44
			c0.42-0.39,0.92-0.58,1.5-0.58c0.61,0,1.12,0.19,1.55,0.58c0.42,0.39,0.63,0.87,0.63,1.44c0,0.58-0.21,1.06-0.63,1.44
			C102.17,19.48,101.65,19.67,101.04,19.67z M102.96,44.42h-3.79V22.91h3.79V44.42z"/>
		<path d="M126.72,42.18c-1.01,0.72-2.19,1.36-3.54,1.92c-1.35,0.56-2.89,0.84-4.61,0.84c-1.41,0-2.71-0.21-3.9-0.63
			c-1.19-0.42-2.23-1.01-3.1-1.79c-0.88-0.78-1.58-1.74-2.11-2.89c-0.53-1.15-0.83-2.46-0.88-3.92V35.5
			c-0.46,0.06-0.93,0.09-1.4,0.11c-0.47,0.01-0.94,0.11-1.4,0.28v-3.92c0.49-0.14,0.96-0.23,1.42-0.26
			c0.46-0.03,0.93-0.07,1.42-0.13c0.09-1.38,0.4-2.64,0.95-3.79c0.55-1.15,1.28-2.14,2.2-2.98c0.92-0.83,2.01-1.48,3.28-1.94
			c1.26-0.46,2.66-0.69,4.18-0.69c1.64,0,3.12,0.36,4.44,1.08c1.01,0.58,1.84,1.37,2.5,2.37c0.66,1.01,0.99,2.14,0.99,3.41
			c0,1.32-0.45,2.56-1.34,3.71c-0.92,1.21-2.02,1.99-3.3,2.35c-1.28,0.36-2.67,0.54-4.16,0.54c-0.66,0-1.43-0.03-2.31-0.09
			c-0.88-0.06-1.68-0.09-2.39-0.09c-0.2,0-0.39,0.01-0.56,0.02c-0.17,0.01-0.33,0.04-0.47,0.06v0.22c0,1.7,0.57,2.98,1.7,3.86
			c1.14,0.88,2.55,1.32,4.25,1.32c0.86,0,1.66-0.07,2.39-0.22c0.73-0.14,1.42-0.35,2.07-0.6s1.27-0.56,1.88-0.91
			c0.6-0.35,1.21-0.72,1.81-1.12V42.18z M119.74,25.92c-0.89,0-1.75,0.12-2.57,0.35c-0.82,0.23-1.55,0.58-2.2,1.04
			c-0.65,0.46-1.18,1.04-1.6,1.75c-0.42,0.7-0.67,1.55-0.75,2.52l2.33-0.09c0.49,0.06,1.08,0.09,1.79,0.11
			c0.7,0.01,1.39,0.02,2.05,0.02c0.57,0,1.15-0.04,1.73-0.11c0.57-0.07,1.08-0.22,1.53-0.43c0.45-0.22,0.8-0.51,1.08-0.88
			c0.27-0.37,0.41-0.85,0.41-1.42c0-1.03-0.39-1.77-1.16-2.2C121.59,26.14,120.71,25.92,119.74,25.92z"/>
		<path d="M133.19,25.88c0.2-0.78,0.58-1.42,1.14-1.92c0.56-0.5,1.16-0.89,1.81-1.16c0.65-0.27,1.29-0.46,1.92-0.56
			c0.63-0.1,1.12-0.15,1.47-0.15c1.64,0,3.05,0.2,4.25,0.6c1.19,0.4,2.17,1.04,2.93,1.9c0.76,0.86,1.33,1.99,1.7,3.39
			c0.37,1.39,0.56,3.08,0.56,5.07v11.43h-3.88V32.91c0-0.89-0.07-1.74-0.22-2.54c-0.14-0.8-0.42-1.52-0.82-2.16
			c-0.4-0.63-0.95-1.14-1.64-1.53c-0.69-0.39-1.6-0.63-2.72-0.71c-0.78,0-1.55,0.14-2.33,0.43c-0.78,0.29-1.47,0.71-2.07,1.27
			c-0.6,0.56-1.1,1.24-1.49,2.05c-0.39,0.81-0.58,1.73-0.58,2.76v11.99h-3.92V22.86h3.92L133.19,25.88z"/>
		<path d="M162.22,44.9c-1.58,0-3.07-0.3-4.46-0.91c-1.39-0.6-2.62-1.42-3.67-2.46c-1.05-1.03-1.88-2.24-2.48-3.62
			c-0.6-1.38-0.91-2.85-0.91-4.4c0-1.58,0.3-3.06,0.91-4.44c0.6-1.38,1.43-2.59,2.48-3.62c1.05-1.04,2.27-1.85,3.67-2.46
			c1.39-0.6,2.88-0.91,4.46-0.91c1.55,0,3.03,0.3,4.42,0.91c1.39,0.6,2.61,1.42,3.64,2.46c1.03,1.04,1.85,2.24,2.46,3.62
			c0.6,1.38,0.91,2.86,0.91,4.44c0,1.55-0.3,3.02-0.91,4.4c-0.6,1.38-1.42,2.59-2.46,3.62c-1.04,1.04-2.25,1.85-3.64,2.46
			C165.24,44.6,163.77,44.9,162.22,44.9z M162.22,26.14c-1.04,0-2.01,0.19-2.93,0.58c-0.92,0.39-1.72,0.91-2.39,1.57
			c-0.68,0.66-1.21,1.44-1.62,2.33c-0.4,0.89-0.6,1.85-0.6,2.89c0,1.04,0.2,2,0.6,2.89c0.4,0.89,0.94,1.68,1.62,2.35
			c0.68,0.68,1.47,1.21,2.39,1.6c0.92,0.39,1.9,0.58,2.93,0.58c1.03,0,2.01-0.19,2.91-0.58c0.91-0.39,1.7-0.92,2.37-1.6
			c0.68-0.68,1.21-1.46,1.6-2.35c0.39-0.89,0.58-1.85,0.58-2.89c0-1.03-0.19-2-0.58-2.89c-0.39-0.89-0.92-1.67-1.6-2.33
			c-0.68-0.66-1.47-1.19-2.37-1.57C164.22,26.33,163.25,26.14,162.22,26.14z"/>
		<path d="M183.3,44.55c-1.18,0-2.26-0.22-3.23-0.65c-0.98-0.43-1.83-1-2.57-1.7c-0.73-0.7-1.3-1.52-1.7-2.46
			c-0.4-0.93-0.6-1.9-0.6-2.91V26.49h-3.84v-3.62h3.88v-6.81h3.75v6.81h4.36v3.62h-4.36v11.04c0.14,0.92,0.62,1.68,1.44,2.29
			c0.81,0.6,1.77,0.91,2.88,0.91V44.55z"/>
	</g>
	
		<linearGradient id="SVGID_00000072282400240730406820000006073241198912841148_" gradientUnits="userSpaceOnUse" x1="15.6244" y1="13.1669" x2="55.8643" y2="48.0313">
		<stop  offset="0" style="stop-color:#883BFF"/>
		<stop  offset="0.1339" style="stop-color:#8140FD"/>
		<stop  offset="0.3347" style="stop-color:#6C50F9"/>
		<stop  offset="0.5775" style="stop-color:#4B68F2"/>
		<stop  offset="0.8508" style="stop-color:#1C8AE9"/>
		<stop  offset="1" style="stop-color:#009FE3"/>
	</linearGradient>
	<circle style="fill:url(#SVGID_00000072282400240730406820000006073241198912841148_);" cx="35.63" cy="30.5" r="27.5"/>
	<g>
		<path class="st0" d="M29.28,22.37c-0.03,0-0.06-0.01-0.09-0.02l-7.82-2.78c-0.09-0.03-0.15-0.1-0.17-0.19
			c-0.02-0.09,0-0.18,0.06-0.25l6.35-6.94c0.04-0.04,0.09-0.07,0.15-0.08l11.77-2.36c0.11-0.02,0.23,0.03,0.29,0.13
			c0.06,0.1,0.05,0.23-0.03,0.31l-10.3,12.08C29.44,22.34,29.36,22.37,29.28,22.37z M21.94,19.2l7.25,2.58l9.67-11.34l-10.91,2.19
			L21.94,19.2z"/>
	</g>
	<g>
		<path class="st0" d="M31.95,19.24c-0.09,0-0.18-0.05-0.23-0.13c-0.06-0.1-0.05-0.23,0.03-0.31l7.63-8.95
			c0.09-0.1,0.24-0.13,0.36-0.05l8.51,5.67c0.09,0.06,0.14,0.17,0.12,0.28c-0.02,0.11-0.11,0.19-0.21,0.21l-16.14,3.28
			C31.99,19.24,31.97,19.24,31.95,19.24z M39.64,10.38l-6.97,8.17l14.73-2.99L39.64,10.38z"/>
	</g>
	<g>
		<path class="st0" d="M48.95,27.84c0,0-0.01,0-0.01,0l-8.21-0.44c-0.14-0.01-0.25-0.12-0.26-0.25l-0.73-9.8
			c-0.01-0.15,0.1-0.28,0.25-0.29c0.15-0.01,0.28,0.1,0.29,0.25L41,26.87l7.66,0.42l-0.84-11.57c-0.01-0.15,0.1-0.28,0.25-0.29
			c0.15-0.01,0.28,0.1,0.29,0.25l0.86,11.88c0.01,0.08-0.02,0.15-0.08,0.21C49.1,27.81,49.03,27.84,48.95,27.84z"/>
	</g>
	<g>
		<path class="st0" d="M41.27,33.73c-0.05,0-0.11-0.02-0.15-0.05l-8.33-5.56c-0.07-0.05-0.12-0.13-0.12-0.21
			c0-0.09,0.03-0.17,0.1-0.22l7.42-6.07c0.08-0.06,0.19-0.08,0.28-0.04c0.09,0.04,0.16,0.13,0.16,0.23l0.91,11.63
			c0.01,0.1-0.04,0.2-0.13,0.26C41.36,33.72,41.32,33.73,41.27,33.73z M33.39,27.87l7.56,5.05l-0.83-10.55L33.39,27.87z"/>
	</g>
	<g>
		<path class="st0" d="M30.02,38.67c-0.08,0-0.15-0.03-0.2-0.09c-0.06-0.07-0.08-0.17-0.06-0.25l2.92-10.5
			c0.02-0.08,0.09-0.15,0.17-0.18c0.08-0.03,0.17-0.02,0.25,0.03l8.33,5.56c0.1,0.07,0.14,0.19,0.11,0.3l-0.9,3.23
			c-0.03,0.1-0.11,0.18-0.22,0.2l-10.35,1.71C30.05,38.67,30.03,38.67,30.02,38.67z M33.1,28.33l-2.71,9.73l9.76-1.61l0.8-2.87
			L33.1,28.33z"/>
	</g>
	<g>
		<path class="st0" d="M32.27,42.71c-0.11,0-0.21-0.06-0.25-0.17l-1.74-4.13c-0.03-0.08-0.03-0.16,0.01-0.24
			c0.04-0.07,0.11-0.12,0.19-0.14l9.85-1.63c0.1-0.02,0.2,0.02,0.26,0.1c0.06,0.08,0.07,0.18,0.03,0.28l-1.35,3.09
			c-0.03,0.07-0.08,0.12-0.15,0.14l-6.75,2.67C32.34,42.71,32.3,42.71,32.27,42.71z M30.91,38.52l1.51,3.57l6.4-2.53l1.11-2.52
			L30.91,38.52z"/>
	</g>
	<g>
		<path class="st0" d="M41.27,33.73c-0.04,0-0.08-0.01-0.11-0.02c-0.09-0.04-0.15-0.13-0.16-0.23l-0.52-6.33
			c-0.01-0.08,0.02-0.16,0.08-0.21c0.05-0.06,0.13-0.09,0.21-0.08l8.21,0.44c0.11,0.01,0.21,0.08,0.25,0.19
			c0.03,0.11,0,0.23-0.09,0.3l-7.69,5.88C41.39,33.71,41.33,33.73,41.27,33.73z M41.04,27.41l0.45,5.52l6.71-5.13L41.04,27.41z"/>
	</g>
	<g>
		<path class="st0" d="M19.55,26.49c-0.06,0-0.13-0.02-0.18-0.07c-0.08-0.07-0.11-0.18-0.08-0.28l1.92-6.9
			c0.02-0.07,0.07-0.13,0.14-0.17c0.07-0.03,0.15-0.04,0.22-0.02l7.82,2.78c0.11,0.04,0.18,0.14,0.18,0.25
			c0,0.11-0.06,0.21-0.17,0.26l-9.74,4.12C19.62,26.49,19.58,26.49,19.55,26.49z M21.65,19.68l-1.69,6.07l8.57-3.63L21.65,19.68z"/>
	</g>
	<g>
		<path class="st0" d="M36.73,53.21h-3.6c-0.1,0-0.19-0.06-0.24-0.15c-0.05-0.09-0.04-0.2,0.02-0.28l5.02-7.26
			c0.05-0.07,0.13-0.12,0.22-0.12h3.11c0.1,0,0.19,0.05,0.24,0.14c0.05,0.09,0.05,0.19-0.01,0.28l-4.54,7.26
			C36.91,53.16,36.83,53.21,36.73,53.21z M33.65,52.66h2.93l4.2-6.72H38.3L33.65,52.66z"/>
	</g>
	<g>
		<path class="st0" d="M33.13,53.21c-0.01,0-0.01,0-0.02,0c-0.1-0.01-0.18-0.07-0.22-0.15l-3.51-7.26
			c-0.04-0.08-0.04-0.18,0.01-0.26c0.05-0.08,0.14-0.13,0.23-0.13h3.14c0.1,0,0.19,0.05,0.24,0.14l2.44,4.26
			c0.05,0.09,0.05,0.2-0.01,0.29l-2.08,3C33.3,53.16,33.22,53.21,33.13,53.21z M30.06,45.94l3.11,6.45l1.71-2.48l-2.28-3.98H30.06z"
			/>
	</g>
</g>
</svg>
